<?xml version="1.0" standalone="no"?>
<!DOCTYPE svg PUBLIC "-//W3C//DTD SVG 1.1//EN"
  "http://www.w3.org/Graphics/SVG/1.1/DTD/svg11.dtd">
<svg width="119.1500015258789mm" height="149.99999999999997mm" viewBox="-75.1500015258789 -84.99999999999999 119.1500015258789 149.99999999999997" xmlns="http://www.w3.org/2000/svg" version="1.1">
	<title>svgOutput</title>
	<desc>made with tinkercad</desc>
<path d="M -74.1500015258789 -70.29000091552733 L -72.0250015258789 -70.29000091552733 L -72.0250015258789 -65.53600311279295 L -72.0250015258789 -32.76800155639648 L -72.0250015258789 1.1102230246251565e-16 L -72.0250015258789 32.76800155639648 L -72.0250015258789 63.999999999999986 L -74.1500015258789 63.999999999999986 L -74.1500015258789 32.76800155639648 L -74.1500015258789 1.1102230246251565e-16 L -74.1500015258789 -32.76800155639648 L -74.1500015258789 -65.53600311279295 L -74.1500015258789 -70.29000091552733 M 43 50.29000091552733 L 32.768001556396484 50.29000091552733 L 16.384000778198242 50.29000091552733 L 0.5 50.29000091552733 L 0.5 50.20299911499022 L 1.4279999732971191 50.20299911499022 L 1.4279999732971191 32.76800155639648 L 1.4279999732971191 1.1102230246251565e-16 L 1.4279999732971191 -32.76800155639648 L 1.4279999732971191 -65.53600311279295 L 1.4279999732971191 -83.99999999999999 L 16.384000778198242 -83.99999999999999 L 32.768001556396484 -83.99999999999999 L 40.959999084472656 -83.99999999999999 L 43 -83.99999999999999 L 43 -81.9199981689453 L 43 -65.53600311279295 L 43 -32.76800155639648 L 43 1.1102230246251565e-16 L 43 32.76800155639648 L 43 48.25099945068358 L 43 49.15200042724608 L 43 50.29000091552733 z" fill="none" stroke="rgb(255,0,0)" stroke-width="0.001mm" />
</svg>