<?xml version="1.0" standalone="no"?>
<!DOCTYPE svg PUBLIC "-//W3C//DTD SVG 1.1//EN"
  "http://www.w3.org/Graphics/SVG/1.1/DTD/svg11.dtd">
<svg width="119.35000228881836mm" height="149.8899993896484mm" viewBox="-75.1500015258789 -84.88999938964842 119.35000228881836 149.8899993896484" xmlns="http://www.w3.org/2000/svg" version="1.1">
	<title>svgOutput</title>
	<desc>made with tinkercad</desc>
<path d="M -74.1500015258789 -70.29000091552733 L -72.0250015258789 -70.29000091552733 L -72.0250015258789 -65.53600311279295 L -72.0250015258789 -49.15200042724608 L -72.0250015258789 -32.76800155639648 L -72.0250015258789 -30.579999923706048 L -72.0250015258789 -30.079999923706048 L -72.0250015258789 1.1102230246251565e-16 L -72.0250015258789 32.76800155639648 L -72.0250015258789 63.999999999999986 L -74.1500015258789 63.999999999999986 L -74.1500015258789 32.76800155639648 L -74.1500015258789 1.1102230246251565e-16 L -74.1500015258789 -30.079999923706048 L -74.1500015258789 -30.579999923706048 L -74.1500015258789 -32.76800155639648 L -74.1500015258789 -49.15200042724608 L -74.1500015258789 -65.53600311279295 L -74.1500015258789 -70.29000091552733 M 43.20000076293945 50.40000152587889 L 40.959999084472656 50.40000152587889 L 36.86399841308594 50.40000152587889 L 32.768001556396484 50.40000152587889 L 28.672000885009766 50.40000152587889 L 24.576000213623047 50.40000152587889 L 16.384000778198242 50.40000152587889 L 0.699999988079071 50.40000152587889 L 0.699999988079071 50.20299911499022 L 1.4279999732971191 50.20299911499022 L 1.4279999732971191 32.76800155639648 L 1.4279999732971191 1.1102230246251565e-16 L 1.4279999732971191 -65.53600311279295 L 1.4279999732971191 -83.88999938964842 L 32.768001556396484 -83.88999938964842 L 43.20000076293945 -83.88999938964842 L 43.20000076293945 -65.53600311279295 L 43.20000076293945 1.1102230246251565e-16 L 43.20000076293945 32.76800155639648 L 43.20000076293945 40.95999908447265 L 43.20000076293945 49.15200042724608 L 43.20000076293945 50.40000152587889 z" fill="none" stroke="rgb(255,0,0)" stroke-width="0.001mm" />
</svg>